<svg xmlns="http://www.w3.org/2000/svg" width="140.043" height="51.624" viewBox="0 0 140.043 51.624">
  <path id="Path_1" data-name="Path 1" d="M67.587,16.605a10.067,10.067,0,0,1-.859-4.015Q66.728,8.6,69.355,7h-2.89a7.962,7.962,0,0,0-1.957,5.435,13.754,13.754,0,0,0,1.366,5.646,9.291,9.291,0,0,1,.891,3.925,8.106,8.106,0,0,1-.628,3.2A5.072,5.072,0,0,1,64.1,27.686h2.89a7.85,7.85,0,0,0,1.957-5.4A14.158,14.158,0,0,0,67.587,16.605Zm7.5-9.6H73.051V27.686h2.035Zm13.641,14.01-8.768-14.6V27.686h2.035v-14l8.768,14.529V7H88.726ZM10.746,32.236a8.374,8.374,0,0,1,6.13,2.525l1.48-1.474a10.333,10.333,0,0,0-7.609-3.159,10.344,10.344,0,0,0-7.608,3.15,10.759,10.759,0,0,0,0,15.194,10.341,10.341,0,0,0,7.608,3.151,10.381,10.381,0,0,0,7.609-3.129l-1.48-1.5a8.372,8.372,0,0,1-6.13,2.525,8.325,8.325,0,0,1-6.1-2.533,8.617,8.617,0,0,1,0-12.212A8.325,8.325,0,0,1,10.746,32.236Zm19.116-2.109A10.74,10.74,0,0,0,19.111,40.89,10.74,10.74,0,0,0,29.863,51.623,10.766,10.766,0,0,0,40.644,40.89,10.765,10.765,0,0,0,29.863,30.128Zm6.113,16.854a8.634,8.634,0,0,1-12.218,0,8.616,8.616,0,0,1,0-12.212,8.633,8.633,0,0,1,12.218,0,8.652,8.652,0,0,1,0,12.212ZM48.285,30.535H45.4a7.961,7.961,0,0,0-1.957,5.435A13.756,13.756,0,0,0,44.8,41.615,9.289,9.289,0,0,1,45.7,45.54a8.1,8.1,0,0,1-.628,3.2,5.071,5.071,0,0,1-2.035,2.476h2.89a7.85,7.85,0,0,0,1.957-5.4,14.155,14.155,0,0,0-1.361-5.676,10.07,10.07,0,0,1-.858-4.015Q45.658,32.134,48.285,30.535Zm3.659-.592V51.216h2.035V36.147L58.548,42.3l4.532-6.1V51.216h2.035V29.942L58.525,38.9Zm27.1.185A10.74,10.74,0,0,0,68.3,40.89a10.766,10.766,0,0,0,18.376,7.582,10.722,10.722,0,0,0,0-15.194A10.4,10.4,0,0,0,79.048,30.128Zm6.113,16.854A8.646,8.646,0,0,1,70.406,40.89a8.639,8.639,0,1,1,14.755,6.091Zm12.29-16.447h-4.5V51.216h2.035V32.606h2.467a4.963,4.963,0,0,1,3.618,1.479,5.069,5.069,0,0,1,0,7.2A4.955,4.955,0,0,1,97.44,42.78h-.5v2.072h.513a7.156,7.156,0,0,0,5.054-12.218A6.887,6.887,0,0,0,97.452,30.535Zm19.735-.407A10.74,10.74,0,0,0,106.436,40.89a10.766,10.766,0,1,0,18.376-7.612A10.4,10.4,0,0,0,117.187,30.128ZM123.3,46.981a8.646,8.646,0,0,1-14.755-6.091A8.639,8.639,0,1,1,123.3,46.981Zm9.825,2.163V30.535H131.09V51.216h8.953V49.144ZM108.5,29.394A14.7,14.7,0,1,0,93.8,14.7,14.7,14.7,0,0,0,108.5,29.394Zm0-27.288A12.591,12.591,0,1,1,95.908,14.7,12.591,12.591,0,0,1,108.5,2.106ZM6.174,11.576c.455-.34.482-.277.3.127-5.3,11.956,7.688,19.045,12.979,7.008.1-.238.237-.211.225.037-.186,4.062-1.472,6.986-3.243,8.924h4.635V7H.405V27.673H4.067C.3,22.452,2.386,14.447,6.174,11.576Zm5.633,6.129a2.758,2.758,0,1,1-2.756,2.758A2.76,2.76,0,0,1,11.807,17.705Zm43.74-5.637,3.967,10.467H53.321l-.747,1.94h7.674l1.217,3.211h2.219L55.5,6.376v.01l0-.01L50.864,18.4A13.585,13.585,0,0,1,44.1,26.11a12.362,12.362,0,0,1-5.224,1.174v0a12.591,12.591,0,1,1,8.9-21.494L49.268,4.3a14.7,14.7,0,1,0-10.393,25.09h0a14.423,14.423,0,0,0,6.095-1.37,15.852,15.852,0,0,0,7.893-8.993Z" transform="translate(0 0.001)" fill="#b3a16e"/>
</svg>
